<svg width="38" height="37" viewBox="0 0 38 37" fill="none" xmlns="http://www.w3.org/2000/svg">
    <path d="M30.7402 16.565C33.1203 17.4863 35.3277 18.638 37.4391 20.0584C37.4967 19.4633 37.5351 18.8683 37.5351 18.2541C37.5351 18.0621 37.5351 17.851 37.5159 17.659C35.4813 16.6033 33.3891 15.778 31.2393 15.1637C28.6288 14.4152 26.2103 14.0697 23.8877 13.7242C22.7936 13.5706 21.8531 13.3978 20.7974 13.2059C21.6995 13.1867 22.4865 13.1675 23.4463 13.1291C25.9799 13.014 28.5904 12.8988 31.5848 13.2443C33.4275 13.4554 35.2701 13.8201 37.1128 14.3576C36.9401 13.5898 36.7289 12.8412 36.4794 12.131C34.6367 11.8239 33.0628 11.7087 31.7575 11.6703C28.0913 11.6127 25.0394 12.0734 22.0834 12.5149C21.546 12.5917 20.7206 12.7068 20.7206 12.7068C23.9837 11.4784 27.5539 10.0964 32.1414 9.52053C33.082 9.42456 34.0993 9.34778 35.2126 9.32859C34.8671 8.71436 34.5024 8.13852 34.0993 7.58188C33.3315 7.67785 32.6021 7.79302 31.9303 7.92738C27.1124 8.96389 23.715 10.6146 20.4711 12.2462C23.4079 9.88523 26.5366 7.62026 31.1433 5.7008C31.4888 5.56644 31.8343 5.45127 32.1798 5.31691C31.7383 4.87543 31.2777 4.47235 30.7978 4.06926C30.6826 4.12684 30.5675 4.18443 30.4523 4.22282C25.4425 6.85248 22.2946 9.75087 19.6073 12.4957C19.6841 12.3613 20.3943 10.9985 20.7014 10.5187C22.2754 8.08093 24.6555 5.06738 28.3793 2.39933C27.5539 1.91946 26.6901 1.49718 25.788 1.15168C22.3906 4.24201 20.6055 7.23637 19.3002 9.86603C18.4365 11.6511 17.7263 13.417 17.0544 15.1254C16.517 16.469 15.9412 17.8894 15.3269 19.2714C15.7684 17.9086 16.1715 16.5074 16.5554 15.087C17.0544 13.2827 17.5535 11.4208 18.2445 9.50134C19.2234 6.83329 20.6054 3.76215 23.4079 0.422282C22.5057 0.211141 21.5844 0.0575839 20.6246 0C18.4557 3.45503 17.4575 6.50698 16.7857 9.15583C16.2867 11.248 15.9604 13.2443 15.6532 15.1829C15.4229 16.6225 15.2118 17.8126 14.9238 19.2138C15.0198 17.7358 15.0006 16.4882 15.0198 14.9718C15.0198 10.4803 15.039 5.89275 17.4575 0.0383894C16.5746 0.115168 15.7108 0.268725 14.8471 0.479865C13.2539 6.50698 13.7338 11.1521 14.1753 15.3941C14.3288 16.8721 14.4056 17.8318 14.4632 19.2714C14.1753 18.0046 13.9065 17.2176 13.5418 15.9315C12.9468 13.8201 12.3518 11.6127 11.9679 9.15583C11.584 6.64134 11.4688 4.14604 11.6608 1.61235C10.9314 1.93866 10.2212 2.32255 9.53016 2.74483C9.64532 5.04818 9.97163 7.27476 10.5091 9.44375C11.1617 12.0926 12.0638 14.3384 12.9276 16.5266C13.3307 17.5631 13.657 18.4652 14.0025 19.4825C13.5418 18.7148 13.1387 18.0237 12.6205 17.2176C11.2577 15.087 9.85647 12.8796 8.6472 10.1156C7.89861 8.40724 7.30358 6.62214 6.84291 4.77946C6.26707 5.29772 5.72962 5.85436 5.23056 6.44939C5.88318 8.1961 6.57419 9.6165 7.20761 10.7682C8.97351 13.9737 10.9122 16.3922 12.774 18.7339C13.1195 19.1562 13.6186 19.8088 13.6186 19.8088C10.9122 17.6015 7.937 15.2021 5.15378 11.4976C4.59714 10.7298 4.04049 9.88523 3.46466 8.9255C3.11915 9.52053 2.79284 10.1348 2.50493 10.7682C2.9656 11.3824 3.44546 11.9582 3.88694 12.4765C7.18841 16.1427 10.3171 18.2541 13.3691 20.2311C9.85646 18.8683 6.32465 17.2752 2.37056 14.2616C2.08264 14.0313 1.79472 13.8009 1.50681 13.5514C1.37244 14.0889 1.23808 14.6263 1.14211 15.1829C1.14211 15.2405 1.12291 15.2981 1.12291 15.3749C1.21889 15.4517 1.33405 15.5093 1.43003 15.586C6.20949 18.5996 10.2979 19.8856 14.0217 20.8454C13.8681 20.8454 12.3326 20.9029 11.7567 20.8837C8.85834 20.7494 5.05781 20.1927 0.892578 18.2925C0.892578 18.3117 0.892578 18.3117 0.892578 18.3117C0.892578 19.2714 0.969356 20.2119 1.10372 21.1333C5.48009 22.5153 8.95432 22.5729 11.8911 22.4001C13.8681 22.2466 15.7492 21.9778 17.5727 21.7091C19.0123 21.498 20.5095 21.2868 22.0259 21.1333C20.6246 21.4404 19.2042 21.8051 17.7838 22.1698C15.9795 22.6497 14.0985 23.1295 12.1022 23.5134C9.29982 24.0125 5.95996 24.3388 1.64117 23.571C1.90989 24.4731 2.2554 25.3561 2.65848 26.2007C6.74694 26.3542 9.87566 25.7016 12.5053 24.953C14.5591 24.3388 16.4594 23.6286 18.3021 22.9184C19.6649 22.4001 20.7974 21.9778 22.1602 21.5364C20.8358 22.189 19.7801 22.8416 18.4557 23.5902C14.5783 25.8168 10.5859 28.1201 4.30922 28.9455C4.82747 29.6557 5.38412 30.3467 5.99835 30.9801C12.0063 29.3486 15.7876 26.6037 19.2426 24.1084C20.4519 23.2447 21.2389 22.688 22.4481 21.9203C21.4884 22.8032 20.951 23.4366 20.0104 24.3964C18.4748 25.9703 16.8817 27.5827 14.9238 29.1566C12.9276 30.7498 10.8354 32.0934 8.55123 33.2067C9.20385 33.6674 9.87566 34.1088 10.5859 34.4735C12.5245 33.2259 14.2904 31.8439 15.9028 30.2699C17.8606 28.3696 19.3578 26.4694 20.8166 24.6267C21.5076 23.7629 22.1218 23.0143 22.8128 22.2082C22.3714 22.9952 22.0067 23.7054 21.5652 24.5307C20.3943 26.7765 19.185 29.099 17.4 31.5176C16.2867 33.0147 15.0582 34.4351 13.6762 35.7596C14.4056 35.9899 15.1542 36.1819 15.922 36.3162C17.112 34.8766 17.995 33.5714 18.6668 32.4389C20.5479 29.291 21.6803 26.4118 22.7744 23.6286C22.9664 23.1295 23.2927 22.3617 23.2927 22.3617C22.7361 25.8168 22.141 29.5789 20.3367 33.8401C19.9528 34.7039 19.5114 35.606 18.9547 36.5849C19.0315 36.5849 19.1275 36.5849 19.2042 36.5849C19.8185 36.5849 20.4327 36.5466 21.0277 36.489C21.3348 35.7788 21.5844 35.0878 21.8147 34.4351C23.3311 29.7517 23.5998 25.9895 23.7918 22.3425C24.3676 26.0663 24.7515 29.9052 24.1181 34.8574C24.0605 35.2221 24.0029 35.5868 23.9261 35.9515C24.4828 35.798 25.0202 35.6252 25.5577 35.4333C25.5961 35.4141 25.6536 35.3949 25.692 35.3757C25.7112 35.2605 25.7112 35.1262 25.7112 34.9918C25.9416 29.3486 25.001 25.1641 23.9645 21.4596C24.0413 21.5939 24.8667 22.8992 25.1354 23.3982C26.4598 25.9703 27.8802 29.5405 28.3217 34.1088C29.1471 33.629 29.9532 33.0915 30.6826 32.4773C29.7037 28.0049 28.0146 24.953 26.383 22.5153C25.2697 20.8646 24.0797 19.3674 22.9472 17.9278C22.045 16.7953 21.1045 15.586 20.2216 14.3576C21.1813 15.4325 22.1986 16.469 23.2351 17.5055C24.5403 18.8299 25.9032 20.2119 27.2276 21.7475C29.0511 23.9165 31.0089 26.6421 32.5061 30.769C33.1395 30.078 33.7346 29.3486 34.272 28.5808C32.3717 24.9722 30.222 22.5729 28.2641 20.6918C26.7093 19.2138 25.1354 17.9278 23.619 16.6993C22.4865 15.778 21.5652 15.0102 20.4903 14.0505C21.7187 14.8758 22.8128 15.4709 24.1181 16.2386C27.9954 18.4844 31.9687 20.7878 35.846 25.8168C36.2107 25.0298 36.5178 24.1852 36.7673 23.3407C32.3526 18.9643 28.0914 17.0448 24.1948 15.3173C22.832 14.7031 21.9683 14.2808 20.7014 13.6282C21.9491 14.0121 22.7552 14.1848 24.0605 14.5111C26.1911 15.087 28.3985 15.6628 30.7402 16.565ZM23.5614 20.7878H14.8279L19.2042 13.2251L23.5614 20.7878Z" fill="#FB622B"/>
</svg>
