<svg width="25" height="24" viewBox="0 0 25 24" fill="none" xmlns="http://www.w3.org/2000/svg">
<mask id="mask0_2149_10720" style="mask-type:alpha" maskUnits="userSpaceOnUse" x="0" y="0" width="25" height="24">
<rect x="0.294922" width="24" height="24" fill="#D9D9D9"/>
</mask>
<g mask="url(#mask0_2149_10720)">
<path d="M11.7949 22C10.2616 22 8.96159 21.4667 7.89492 20.4C6.82826 19.3333 6.29492 18.0333 6.29492 16.5V6C6.29492 4.9 6.68659 3.95833 7.46992 3.175C8.25326 2.39167 9.19492 2 10.2949 2C11.3949 2 12.3366 2.39167 13.1199 3.175C13.9033 3.95833 14.2949 4.9 14.2949 6V14H12.7949V6C12.7949 5.3 12.5533 4.70833 12.0699 4.225C11.5866 3.74167 10.9949 3.5 10.2949 3.5C9.59492 3.5 9.00326 3.74167 8.51992 4.225C8.03659 4.70833 7.79492 5.3 7.79492 6V16.5C7.79492 17.6 8.18659 18.5417 8.96992 19.325C9.75326 20.1083 10.6949 20.5 11.7949 20.5C12.2783 20.5 12.7324 20.4208 13.1574 20.2625C13.5824 20.1042 13.9616 19.8833 14.2949 19.6V21.4C13.9116 21.5833 13.5116 21.7292 13.0949 21.8375C12.6783 21.9458 12.2449 22 11.7949 22ZM16.2949 21V18H13.2949V16H16.2949V13H18.2949V16H21.2949V18H18.2949V21H16.2949ZM11.7949 16.5V18C11.0949 18 10.5033 17.7583 10.0199 17.275C9.53659 16.7917 9.29492 16.2 9.29492 15.5V6H10.7949V15.5C10.7949 15.7833 10.8908 16.0208 11.0824 16.2125C11.2741 16.4042 11.5116 16.5 11.7949 16.5ZM15.7949 11V6H17.2949V11H15.7949Z" fill="#515A73"/>
</g>
</svg>
