<svg width="24" height="25" viewBox="0 0 24 25" fill="none" xmlns="http://www.w3.org/2000/svg">
<mask id="mask0_2379_105" style="mask-type:alpha" maskUnits="userSpaceOnUse" x="0" y="0" width="24" height="25">
<rect y="0.584961" width="24" height="24" fill="#D9D9D9"/>
</mask>
<g mask="url(#mask0_2379_105)">
<path d="M11.5 22.585C9.96667 22.585 8.66667 22.0516 7.6 20.985C6.53333 19.9183 6 18.6183 6 17.085V6.58496C6 5.48496 6.39167 4.54329 7.175 3.75996C7.95833 2.97663 8.9 2.58496 10 2.58496C11.1 2.58496 12.0417 2.97663 12.825 3.75996C13.6083 4.54329 14 5.48496 14 6.58496V14.585H12.5V6.58496C12.5 5.88496 12.2583 5.29329 11.775 4.80996C11.2917 4.32663 10.7 4.08496 10 4.08496C9.3 4.08496 8.70833 4.32663 8.225 4.80996C7.74167 5.29329 7.5 5.88496 7.5 6.58496V17.085C7.5 18.185 7.89167 19.1266 8.675 19.91C9.45833 20.6933 10.4 21.085 11.5 21.085C11.9833 21.085 12.4375 21.0058 12.8625 20.8475C13.2875 20.6891 13.6667 20.4683 14 20.185V21.985C13.6167 22.1683 13.2167 22.3141 12.8 22.4225C12.3833 22.5308 11.95 22.585 11.5 22.585ZM16 21.585V18.585H13V16.585H16V13.585H18V16.585H21V18.585H18V21.585H16ZM11.5 17.085V18.585C10.8 18.585 10.2083 18.3433 9.725 17.86C9.24167 17.3766 9 16.785 9 16.085V6.58496H10.5V16.085C10.5 16.3683 10.5958 16.6058 10.7875 16.7975C10.9792 16.9891 11.2167 17.085 11.5 17.085ZM15.5 11.585V6.58496H17V11.585H15.5Z" fill="#8A3618"/>
</g>
</svg>
