<svg width="37" height="37" viewBox="0 0 37 37" fill="none" xmlns="http://www.w3.org/2000/svg">
<path d="M29.8476 16.565C32.2278 17.4863 34.4351 18.638 36.5466 20.0584C36.6041 19.4633 36.6425 18.8683 36.6425 18.2541C36.6425 18.0621 36.6425 17.851 36.6233 17.659C34.5887 16.6033 32.4965 15.778 30.3467 15.1637C27.7362 14.4152 25.3177 14.0697 22.9952 13.7242C21.9011 13.5706 20.9605 13.3978 19.9048 13.2059C20.807 13.1867 21.5939 13.1675 22.5537 13.1291C25.0874 13.014 27.6978 12.8988 30.6922 13.2443C32.5349 13.4554 34.3776 13.8201 36.2202 14.3576C36.0475 13.5898 35.8363 12.8412 35.5868 12.131C33.7441 11.8239 32.1702 11.7087 30.8649 11.6703C27.1988 11.6127 24.1468 12.0734 21.1909 12.5149C20.6534 12.5917 19.828 12.7068 19.828 12.7068C23.0911 11.4784 26.6613 10.0964 31.2488 9.52053C32.1894 9.42456 33.2067 9.34778 34.32 9.32859C33.9745 8.71436 33.6098 8.13852 33.2067 7.58188C32.4389 7.67785 31.7095 7.79302 31.0377 7.92738C26.2199 8.96389 22.8224 10.6146 19.5785 12.2462C22.5153 9.88523 25.644 7.62026 30.2507 5.7008C30.5962 5.56644 30.9417 5.45127 31.2872 5.31691C30.8458 4.87543 30.3851 4.47235 29.9052 4.06926C29.79 4.12684 29.6749 4.18443 29.5597 4.22282C24.5499 6.85248 21.402 9.75087 18.7148 12.4957C18.7915 12.3613 19.5017 10.9985 19.8088 10.5187C21.3828 8.08093 23.7629 5.06738 27.4867 2.39933C26.6613 1.91946 25.7976 1.49718 24.8954 1.15168C21.498 4.24201 19.7129 7.23637 18.4076 9.86603C17.5439 11.6511 16.8337 13.417 16.1619 15.1254C15.6244 16.469 15.0486 17.8894 14.4344 19.2714C14.8758 17.9086 15.2789 16.5074 15.6628 15.087C16.1619 13.2827 16.6609 11.4208 17.3519 9.50134C18.3309 6.83329 19.7129 3.76215 22.5153 0.422282C21.6131 0.211141 20.6918 0.0575839 19.7321 0C17.5631 3.45503 16.565 6.50698 15.8931 9.15583C15.3941 11.248 15.0678 13.2443 14.7607 15.1829C14.5303 16.6225 14.3192 17.8126 14.0313 19.2138C14.1272 17.7358 14.108 16.4882 14.1272 14.9718C14.1272 10.4803 14.1464 5.89275 16.565 0.0383894C15.682 0.115168 14.8182 0.268725 13.9545 0.479865C12.3613 6.50698 12.8412 11.1521 13.2827 15.3941C13.4362 16.8721 13.513 17.8318 13.5706 19.2714C13.2827 18.0046 13.014 17.2176 12.6493 15.9315C12.0542 13.8201 11.4592 11.6127 11.0753 9.15583C10.6914 6.64134 10.5762 4.14604 10.7682 1.61235C10.0388 1.93866 9.32858 2.32255 8.63758 2.74483C8.75275 5.04818 9.07905 7.27476 9.6165 9.44375C10.2691 12.0926 11.1713 14.3384 12.035 16.5266C12.4381 17.5631 12.7644 18.4652 13.1099 19.4825C12.6493 18.7148 12.2462 18.0237 11.7279 17.2176C10.3651 15.087 8.96389 12.8796 7.75463 10.1156C7.00604 8.40724 6.411 6.62214 5.95033 4.77946C5.37449 5.29772 4.83704 5.85436 4.33798 6.44939C4.9906 8.1961 5.68161 9.6165 6.31503 10.7682C8.08093 13.9737 10.0196 16.3922 11.8815 18.7339C12.227 19.1562 12.726 19.8088 12.726 19.8088C10.0196 17.6015 7.04442 15.2021 4.2612 11.4976C3.70456 10.7298 3.14792 9.88523 2.57208 8.9255C2.22658 9.52053 1.90027 10.1348 1.61235 10.7682C2.07302 11.3824 2.55288 11.9582 2.99436 12.4765C6.29583 16.1427 9.42456 18.2541 12.4765 20.2311C8.96389 18.8683 5.43208 17.2752 1.47799 14.2616C1.19007 14.0313 0.902146 13.8009 0.614227 13.5514C0.479865 14.0889 0.345503 14.6263 0.24953 15.1829C0.24953 15.2405 0.230335 15.2981 0.230335 15.3749C0.326308 15.4517 0.441476 15.5093 0.537449 15.586C5.31691 18.5996 9.40536 19.8856 13.1291 20.8454C12.9756 20.8454 11.44 20.9029 10.8642 20.8837C7.96577 20.7494 4.16523 20.1927 0 18.2925C0 18.3117 0 18.3117 0 18.3117C0 19.2714 0.0767782 20.2119 0.21114 21.1333C4.58751 22.5153 8.06174 22.5729 10.9985 22.4001C12.9756 22.2466 14.8566 21.9778 16.6801 21.7091C18.1197 21.498 19.6169 21.2868 21.1333 21.1333C19.7321 21.4404 18.3117 21.8051 16.8913 22.1698C15.087 22.6497 13.2059 23.1295 11.2097 23.5134C8.40724 24.0125 5.06738 24.3388 0.74859 23.571C1.01731 24.4731 1.36282 25.3561 1.7659 26.2007C5.85436 26.3542 8.98308 25.7016 11.6127 24.953C13.6666 24.3388 15.5668 23.6286 17.4095 22.9184C18.7723 22.4001 19.9048 21.9778 21.2676 21.5364C19.9432 22.189 18.8875 22.8416 17.5631 23.5902C13.6858 25.8168 9.69328 28.1201 3.41664 28.9455C3.9349 29.6557 4.49154 30.3467 5.10577 30.9801C11.1137 29.3486 14.895 26.6037 18.3501 24.1084C19.5593 23.2447 20.3463 22.688 21.5556 21.9203C20.5958 22.8032 20.0584 23.4366 19.1178 24.3964C17.5823 25.9703 15.9891 27.5827 14.0313 29.1566C12.035 30.7498 9.94281 32.0934 7.65865 33.2067C8.31127 33.6674 8.98308 34.1088 9.69328 34.4735C11.6319 33.2259 13.3978 31.8439 15.0102 30.2699C16.968 28.3696 18.4652 26.4694 19.924 24.6267C20.615 23.7629 21.2292 23.0143 21.9203 22.2082C21.4788 22.9952 21.1141 23.7054 20.6726 24.5307C19.5017 26.7765 18.2925 29.099 16.5074 31.5176C15.3941 33.0147 14.1656 34.4351 12.7836 35.7596C13.513 35.9899 14.2616 36.1819 15.0294 36.3162C16.2195 34.8766 17.1024 33.5714 17.7742 32.4389C19.6553 29.291 20.7878 26.4118 21.8819 23.6286C22.0738 23.1295 22.4001 22.3617 22.4001 22.3617C21.8435 25.8168 21.2484 29.5789 19.4441 33.8401C19.0603 34.7039 18.6188 35.606 18.0621 36.5849C18.1389 36.5849 18.2349 36.5849 18.3117 36.5849C18.9259 36.5849 19.5401 36.5466 20.1352 36.489C20.4423 35.7788 20.6918 35.0878 20.9221 34.4351C22.4385 29.7517 22.7072 25.9895 22.8992 22.3425C23.475 26.0663 23.8589 29.9052 23.2255 34.8574C23.1679 35.2221 23.1103 35.5868 23.0335 35.9515C23.5902 35.798 24.1276 35.6252 24.6651 35.4333C24.7035 35.4141 24.7611 35.3949 24.7994 35.3757C24.8186 35.2605 24.8186 35.1262 24.8186 34.9918C25.049 29.3486 24.1084 25.1641 23.0719 21.4596C23.1487 21.5939 23.9741 22.8992 24.2428 23.3982C25.5672 25.9703 26.9876 29.5405 27.4291 34.1088C28.2545 33.629 29.0607 33.0915 29.79 32.4773C28.8111 28.0049 27.122 24.953 25.4904 22.5153C24.3772 20.8646 23.1871 19.3674 22.0546 17.9278C21.1525 16.7953 20.2119 15.586 19.329 14.3576C20.2887 15.4325 21.306 16.469 22.3425 17.5055C23.6478 18.8299 25.0106 20.2119 26.335 21.7475C28.1585 23.9165 30.1164 26.6421 31.6135 30.769C32.247 30.078 32.842 29.3486 33.3794 28.5808C31.4792 24.9722 29.3294 22.5729 27.3715 20.6918C25.8168 19.2138 24.2428 17.9278 22.7264 16.6993C21.5939 15.778 20.6726 15.0102 19.5977 14.0505C20.8262 14.8758 21.9203 15.4709 23.2255 16.2386C27.1028 18.4844 31.0761 20.7878 34.9534 25.8168C35.3181 25.0298 35.6252 24.1852 35.8747 23.3407C31.46 18.9643 27.1988 17.0448 23.3023 15.3173C21.9394 14.7031 21.0757 14.2808 19.8088 13.6282C21.0565 14.0121 21.8627 14.1848 23.1679 14.5111C25.2985 15.087 27.5059 15.6628 29.8476 16.565ZM22.6688 20.7878H13.9353L18.3117 13.2251L22.6688 20.7878Z" fill="#8A3618"/>
</svg>
