<svg width="148" height="21" viewBox="0 0 148 21" fill="none" xmlns="http://www.w3.org/2000/svg">
<path d="M0.642525 19.6211H2.81152L4.96131 14.5729H12.5624L14.6738 19.6211H16.862L8.85782 0.963898L0.642525 19.6211ZM5.76749 12.7302L8.81943 5.5898L11.7946 12.7302H5.76749Z" fill="#8A3618"/>
<path d="M23.839 1.39577H21.862V19.1892H30.1924V17.3465H23.839V1.39577Z" fill="#8A3618"/>
<path d="M35.1924 3.23845H39.492V19.1892H41.4883V3.23845H45.8263V1.39577H35.1924V3.23845Z" fill="#8A3618"/>
<path d="M52.8033 1.38617H50.8263V19.1988H52.8033V1.38617Z" fill="#8A3618"/>
<path d="M67.8805 15.475L61.4119 0.522415L57.8033 19.3331H59.8379L62.1221 7.29812H62.1797L67.8805 20.0625L73.6197 7.29812H73.6773L75.9614 19.3331H77.996L74.3683 0.522415L67.8805 15.475Z" fill="#8A3618"/>
<path d="M82.996 19.1892H92.2287V17.3465H84.9923V10.3597H92.0175V8.51697H84.9923V3.23845H92.2287V1.39577H82.996V19.1892Z" fill="#8A3618"/>
<path d="M97.2287 3.23845H101.509V19.1892H103.505V3.23845H107.843V1.39577H97.2287V3.23845Z" fill="#8A3618"/>
<path d="M123.4 7.20214C123.4 4.97556 122.172 3.03691 120.214 2.09637C119.542 1.78926 118.448 1.42456 115.857 1.42456H112.843V19.1604H114.974V11.4442L120.751 19.1604H123.266L118.314 12.615C121.673 12.3079 123.4 9.69744 123.4 7.20214ZM114.974 3.26724H116.202C117.604 3.26724 118.506 3.36322 119.542 3.91986C120.617 4.45731 121.385 5.82013 121.385 7.16375C121.385 8.44979 120.656 10.1581 118.602 10.7531C117.834 10.9835 117.085 11.0027 114.974 11.0027V3.26724Z" fill="#8A3618"/>
<path d="M130.377 1.38617H128.4V19.1988H130.377V1.38617Z" fill="#8A3618"/>
<path d="M144.936 1.39577L137.374 9.01603V1.39577H135.377V19.1892H137.374V11.5305L137.853 11.0315L145.147 19.1892H147.892L139.255 9.68784L147.604 1.39577H144.936Z" fill="#8A3618"/>
</svg>
