<svg width="137" height="20" viewBox="0 0 137 20" fill="none" xmlns="http://www.w3.org/2000/svg">
<path d="M6.6362 19.168C5.5162 19.168 4.50819 18.976 3.61219 18.592C2.71619 18.192 2.01219 17.632 1.50019 16.912C0.988195 16.192 0.732195 15.352 0.732195 14.392H3.66019C3.7242 15.112 4.00419 15.704 4.50019 16.168C5.01219 16.632 5.7242 16.864 6.6362 16.864C7.58019 16.864 8.3162 16.64 8.8442 16.192C9.3722 15.728 9.6362 15.136 9.6362 14.416C9.6362 13.856 9.4682 13.4 9.1322 13.048C8.8122 12.696 8.4042 12.424 7.9082 12.232C7.4282 12.04 6.7562 11.832 5.89219 11.608C4.80419 11.32 3.91619 11.032 3.22819 10.744C2.55619 10.44 1.98019 9.976 1.50019 9.352C1.02019 8.728 0.780195 7.896 0.780195 6.856C0.780195 5.896 1.02019 5.056 1.50019 4.336C1.98019 3.616 2.65219 3.064 3.51619 2.68C4.3802 2.296 5.3802 2.104 6.5162 2.104C8.13219 2.104 9.45219 2.512 10.4762 3.328C11.5162 4.128 12.0922 5.232 12.2042 6.64H9.1802C9.13219 6.032 8.84419 5.512 8.3162 5.08C7.7882 4.648 7.0922 4.432 6.22819 4.432C5.44419 4.432 4.80419 4.632 4.3082 5.032C3.8122 5.432 3.5642 6.008 3.5642 6.76C3.5642 7.272 3.71619 7.696 4.02019 8.032C4.34019 8.352 4.74019 8.608 5.22019 8.8C5.70019 8.992 6.35619 9.2 7.1882 9.424C8.2922 9.728 9.1882 10.032 9.87619 10.336C10.5802 10.64 11.1722 11.112 11.6522 11.752C12.1482 12.376 12.3962 13.216 12.3962 14.272C12.3962 15.12 12.1642 15.92 11.7002 16.672C11.2522 17.424 10.5882 18.032 9.70819 18.496C8.8442 18.944 7.8202 19.168 6.6362 19.168ZM27.2646 12.064C27.2646 12.56 27.2326 13.008 27.1686 13.408H17.0646C17.1446 14.464 17.5366 15.312 18.2406 15.952C18.9446 16.592 19.8086 16.912 20.8326 16.912C22.3046 16.912 23.3446 16.296 23.9526 15.064H26.9046C26.5046 16.28 25.7766 17.28 24.7206 18.064C23.6806 18.832 22.3846 19.216 20.8326 19.216C19.5686 19.216 18.4326 18.936 17.4246 18.376C16.4326 17.8 15.6486 17 15.0726 15.976C14.5126 14.936 14.2326 13.736 14.2326 12.376C14.2326 11.016 14.5046 9.824 15.0486 8.8C15.6086 7.76 16.3846 6.96 17.3766 6.4C18.3846 5.84 19.5366 5.56 20.8326 5.56C22.0806 5.56 23.1926 5.832 24.1686 6.376C25.1446 6.92 25.9046 7.688 26.4486 8.68C26.9926 9.656 27.2646 10.784 27.2646 12.064ZM24.4086 11.2C24.3926 10.192 24.0326 9.384 23.3286 8.776C22.6246 8.168 21.7526 7.864 20.7126 7.864C19.7686 7.864 18.9606 8.168 18.2886 8.776C17.6166 9.368 17.2166 10.176 17.0886 11.2H24.4086ZM32.2131 1.24V19H29.4771V1.24H32.2131ZM40.8692 8.008H38.4212V19H35.6612V8.008H34.1012V5.776H35.6612V4.84C35.6612 3.32 36.0612 2.216 36.8612 1.528C37.6772 0.823999 38.9492 0.472 40.6772 0.472V2.752C39.8452 2.752 39.2612 2.912 38.9252 3.232C38.5892 3.536 38.4212 4.072 38.4212 4.84V5.776H40.8692V8.008ZM44.2059 4.024C43.7099 4.024 43.2939 3.856 42.9579 3.52C42.6219 3.184 42.4539 2.768 42.4539 2.272C42.4539 1.776 42.6219 1.36 42.9579 1.024C43.2939 0.687999 43.7099 0.519999 44.2059 0.519999C44.6859 0.519999 45.0939 0.687999 45.4299 1.024C45.7659 1.36 45.9339 1.776 45.9339 2.272C45.9339 2.768 45.7659 3.184 45.4299 3.52C45.0939 3.856 44.6859 4.024 44.2059 4.024ZM45.5499 5.776V19H42.8139V5.776H45.5499ZM60.7821 12.064C60.7821 12.56 60.7501 13.008 60.6861 13.408H50.5821C50.6621 14.464 51.0541 15.312 51.7581 15.952C52.4621 16.592 53.3261 16.912 54.3501 16.912C55.8221 16.912 56.8621 16.296 57.4701 15.064H60.4221C60.0221 16.28 59.2941 17.28 58.2381 18.064C57.1981 18.832 55.9021 19.216 54.3501 19.216C53.0861 19.216 51.9501 18.936 50.9421 18.376C49.9501 17.8 49.1661 17 48.5901 15.976C48.0301 14.936 47.7501 13.736 47.7501 12.376C47.7501 11.016 48.0221 9.824 48.5661 8.8C49.1261 7.76 49.9021 6.96 50.8941 6.4C51.9021 5.84 53.0541 5.56 54.3501 5.56C55.5981 5.56 56.7101 5.832 57.6861 6.376C58.6621 6.92 59.4221 7.688 59.9661 8.68C60.5101 9.656 60.7821 10.784 60.7821 12.064ZM57.9261 11.2C57.9101 10.192 57.5501 9.384 56.8461 8.776C56.1421 8.168 55.2701 7.864 54.2301 7.864C53.2861 7.864 52.4781 8.168 51.8061 8.776C51.1341 9.368 50.7341 10.176 50.6061 11.2H57.9261ZM79.0026 5.56C80.0426 5.56 80.9706 5.776 81.7866 6.208C82.6186 6.64 83.2666 7.28 83.7306 8.128C84.2106 8.976 84.4506 10 84.4506 11.2V19H81.7386V11.608C81.7386 10.424 81.4426 9.52 80.8506 8.896C80.2586 8.256 79.4506 7.936 78.4266 7.936C77.4026 7.936 76.5866 8.256 75.9786 8.896C75.3866 9.52 75.0906 10.424 75.0906 11.608V19H72.3786V11.608C72.3786 10.424 72.0826 9.52 71.4906 8.896C70.8986 8.256 70.0906 7.936 69.0666 7.936C68.0426 7.936 67.2266 8.256 66.6186 8.896C66.0266 9.52 65.7306 10.424 65.7306 11.608V19H62.9946V5.776H65.7306V7.288C66.1786 6.744 66.7466 6.32 67.4346 6.016C68.1226 5.712 68.8586 5.56 69.6426 5.56C70.6986 5.56 71.6426 5.784 72.4746 6.232C73.3066 6.68 73.9466 7.328 74.3946 8.176C74.7946 7.376 75.4186 6.744 76.2666 6.28C77.1146 5.8 78.0266 5.56 79.0026 5.56ZM99.5721 12.064C99.5721 12.56 99.5401 13.008 99.4761 13.408H89.3721C89.4521 14.464 89.8441 15.312 90.5481 15.952C91.2521 16.592 92.1161 16.912 93.1401 16.912C94.6121 16.912 95.6521 16.296 96.2601 15.064H99.2121C98.8121 16.28 98.0841 17.28 97.0281 18.064C95.9881 18.832 94.6921 19.216 93.1401 19.216C91.8761 19.216 90.7401 18.936 89.7321 18.376C88.7401 17.8 87.9561 17 87.3801 15.976C86.8201 14.936 86.5401 13.736 86.5401 12.376C86.5401 11.016 86.8121 9.824 87.3561 8.8C87.9161 7.76 88.6921 6.96 89.6841 6.4C90.6921 5.84 91.8441 5.56 93.1401 5.56C94.3881 5.56 95.5001 5.832 96.4761 6.376C97.4521 6.92 98.2121 7.688 98.7561 8.68C99.3001 9.656 99.5721 10.784 99.5721 12.064ZM96.7161 11.2C96.7001 10.192 96.3401 9.384 95.6361 8.776C94.9321 8.168 94.0601 7.864 93.0201 7.864C92.0761 7.864 91.2681 8.168 90.5961 8.776C89.9241 9.368 89.5241 10.176 89.3961 11.2H96.7161ZM104.977 8.008V15.328C104.977 15.824 105.089 16.184 105.313 16.408C105.553 16.616 105.953 16.72 106.513 16.72H108.193V19H106.033C104.801 19 103.857 18.712 103.201 18.136C102.545 17.56 102.217 16.624 102.217 15.328V8.008H100.657V5.776H102.217V2.488H104.977V5.776H108.193V8.008H104.977ZM112.97 7.696C113.37 7.024 113.898 6.504 114.554 6.136C115.226 5.752 116.018 5.56 116.93 5.56V8.392H116.234C115.162 8.392 114.346 8.664 113.786 9.208C113.242 9.752 112.97 10.696 112.97 12.04V19H110.234V5.776H112.97V7.696ZM120.357 4.024C119.861 4.024 119.445 3.856 119.109 3.52C118.773 3.184 118.605 2.768 118.605 2.272C118.605 1.776 118.773 1.36 119.109 1.024C119.445 0.687999 119.861 0.519999 120.357 0.519999C120.837 0.519999 121.245 0.687999 121.581 1.024C121.917 1.36 122.085 1.776 122.085 2.272C122.085 2.768 121.917 3.184 121.581 3.52C121.245 3.856 120.837 4.024 120.357 4.024ZM121.701 5.776V19H118.965V5.776H121.701ZM130.045 12.4L136.141 19H132.445L127.549 13.312V19H124.813V1.24H127.549V11.56L132.349 5.776H136.141L130.045 12.4Z" fill="#8A3618"/>
</svg>
